<svg width="16" height="15" viewBox="0 0 16 15" fill="none" xmlns="http://www.w3.org/2000/svg">
<path d="M0.706956 14.7071C0.316431 14.3166 0.316431 13.6834 0.706956 13.2929L13.4349 0.564971C13.8254 0.174446 14.4586 0.174446 14.8491 0.564971C15.2396 0.955495 15.2396 1.58866 14.8491 1.97918L2.12117 14.7071C1.73065 15.0976 1.09748 15.0976 0.706956 14.7071Z" fill="white"/>
<path d="M14.8491 14.7071C15.2396 14.3166 15.2396 13.6834 14.8491 13.2929L2.12119 0.564971C1.73067 0.174446 1.0975 0.174446 0.706979 0.564971C0.316455 0.955495 0.316455 1.58866 0.706979 1.97918L13.4349 14.7071C13.8254 15.0976 14.4586 15.0976 14.8491 14.7071Z" fill="white"/>
</svg>
