<svg width="24" height="24" viewBox="0 0 24 24" fill="none" xmlns="http://www.w3.org/2000/svg">
<g id="Property 1=Denied">
<path id="Vector" d="M15.85 13L13.85 11H17V13H15.85ZM19.775 22.625L17.5 20.35C16.6833 20.8833 15.8127 21.2917 14.888 21.575C13.9633 21.8583 13.0007 22 12 22C10.6167 22 9.31667 21.7373 8.1 21.212C6.88333 20.6867 5.825 19.9743 4.925 19.075C4.025 18.175 3.31267 17.1167 2.788 15.9C2.26333 14.6833 2.00067 13.3833 2 12C2 11 2.14167 10.0373 2.425 9.112C2.70833 8.18667 3.11667 7.316 3.65 6.5L1.375 4.225L2.8 2.8L21.2 21.2L19.775 22.625ZM20.35 17.5L18.9 16.05C19.2667 15.4167 19.5417 14.7623 19.725 14.087C19.9083 13.4117 20 12.716 20 12C20 9.78333 19.221 7.89567 17.663 6.337C16.105 4.77833 14.2173 3.99933 12 4C11.2833 4 10.5877 4.09167 9.913 4.275C9.23833 4.45833 8.584 4.73333 7.95 5.1L6.5 3.65C7.31667 3.11667 8.18767 2.70833 9.113 2.425C10.0383 2.14167 11.0007 2 12 2C13.3833 2 14.6833 2.26267 15.9 2.788C17.1167 3.31333 18.175 4.02567 19.075 4.925C19.975 5.825 20.6877 6.88333 21.213 8.1C21.7383 9.31667 22.0007 10.6167 22 12C22 13 21.8583 13.9627 21.575 14.888C21.2917 15.8133 20.8833 16.684 20.35 17.5ZM16.05 18.9L10.15 13H7V11H8.15L5.1 7.95C4.73333 8.58333 4.45833 9.23767 4.275 9.913C4.09167 10.5883 4 11.284 4 12C4 14.2167 4.779 16.1043 6.337 17.663C7.895 19.2217 9.78267 20.0007 12 20C12.7167 20 13.4123 19.9083 14.087 19.725C14.7617 19.5417 15.416 19.2667 16.05 18.9Z" fill="white"/>
</g>
</svg>
