<svg width="24" height="24" viewBox="0 0 24 24" fill="none" xmlns="http://www.w3.org/2000/svg">
<path d="M4.70708 18.7071C4.31655 18.3166 4.31655 17.6834 4.70708 17.2929L17.435 4.56497C17.8255 4.17445 18.4587 4.17445 18.8492 4.56497C19.2397 4.9555 19.2397 5.58866 18.8492 5.97919L6.12129 18.7071C5.73077 19.0976 5.0976 19.0976 4.70708 18.7071Z" fill="white"/>
<path d="M18.8492 18.7071C19.2398 18.3166 19.2398 17.6834 18.8492 17.2929L6.12132 4.56497C5.73079 4.17445 5.09763 4.17445 4.7071 4.56497C4.31658 4.9555 4.31658 5.58866 4.7071 5.97919L17.435 18.7071C17.8255 19.0976 18.4587 19.0976 18.8492 18.7071Z" fill="white"/>
</svg>
