<svg width="512" height="512" viewBox="0 0 512 512" fill="none" xmlns="http://www.w3.org/2000/svg">
<g clip-path="url(#clip0_1405_209)">
<path d="M359.963 160.622C340.513 151.695 319.987 145.328 298.899 141.682C298.708 141.647 298.51 141.672 298.334 141.756C298.157 141.839 298.012 141.976 297.918 142.146C295.281 146.837 292.36 152.955 290.314 157.765C267.256 154.312 244.315 154.312 221.73 157.765C219.683 152.849 216.656 146.837 214.007 142.146C213.91 141.979 213.763 141.846 213.588 141.763C213.413 141.68 213.217 141.652 213.026 141.682C191.599 145.373 171.095 151.837 151.962 160.622C151.795 160.693 151.655 160.813 151.56 160.967C112.668 219.072 102.013 275.748 107.24 331.722C107.263 331.995 107.417 332.257 107.63 332.424C133.29 351.269 158.147 362.709 182.541 370.292C182.731 370.348 182.933 370.346 183.121 370.284C183.309 370.222 183.474 370.105 183.593 369.947C189.364 362.066 194.507 353.757 198.918 345.019C199.178 344.508 198.93 343.9 198.398 343.698C190.238 340.603 182.469 336.829 174.996 332.544C174.405 332.199 174.357 331.353 174.901 330.948C176.478 329.77 178.028 328.555 179.549 327.306C179.682 327.196 179.844 327.125 180.015 327.102C180.187 327.079 180.361 327.104 180.519 327.174C229.616 349.591 282.769 349.591 331.286 327.174C331.444 327.099 331.621 327.071 331.794 327.092C331.968 327.113 332.132 327.183 332.268 327.293C333.791 328.55 335.344 329.768 336.927 330.948C337.471 331.353 337.435 332.198 336.845 332.543C329.371 336.912 321.602 340.602 313.431 343.686C313.305 343.734 313.191 343.808 313.096 343.903C313.001 343.998 312.927 344.113 312.879 344.238C312.831 344.364 312.81 344.499 312.818 344.633C312.825 344.768 312.861 344.899 312.923 345.019C317.428 353.744 322.572 362.053 328.236 369.934C328.473 370.268 328.898 370.411 329.288 370.291C353.801 362.709 378.658 351.268 404.318 332.424C404.428 332.343 404.52 332.24 404.587 332.121C404.655 332.002 404.696 331.87 404.708 331.734C410.963 267.022 394.231 210.81 360.352 160.979C360.27 160.817 360.131 160.691 359.963 160.622ZM206.251 297.64C191.469 297.64 179.29 284.069 179.29 267.403C179.29 250.737 191.233 237.166 206.251 237.166C221.386 237.166 233.448 250.856 233.212 267.403C233.212 284.069 221.268 297.64 206.251 297.64ZM305.935 297.64C291.154 297.64 278.974 284.069 278.974 267.403C278.974 250.737 290.917 237.166 305.935 237.166C321.071 237.166 333.132 250.856 332.896 267.403C332.896 284.069 321.071 297.64 305.935 297.64Z" fill="#C5C5C5"/>
</g>
<defs>
<clipPath id="clip0_1405_209">
<rect width="300" height="300" fill="white" transform="translate(106 106)"/>
</clipPath>
</defs>
</svg>
