<svg width="512" height="512" viewBox="0 0 512 512" fill="none" xmlns="http://www.w3.org/2000/svg">
<g clip-path="url(#clip0_1405_201)">
<path d="M284.125 162.25H171.625C166.45 162.25 162.25 166.45 162.25 171.625C162.25 176.8 166.45 181 171.625 181H284.125C289.3 181 293.5 176.8 293.5 171.625C293.5 166.45 289.3 162.25 284.125 162.25ZM246.625 199.75H171.625C166.45 199.75 162.25 203.95 162.25 209.125C162.25 214.3 166.45 218.5 171.625 218.5H246.625C251.8 218.5 256 214.3 256 209.125C256 203.95 251.8 199.75 246.625 199.75Z" fill="#C5C5C5"/>
<path d="M312.25 106H143.5C122.819 106 106 122.819 106 143.5V331C106 334.638 108.1 337.956 111.4 339.494C112.646 340.071 114.002 340.372 115.375 340.375C117.531 340.375 119.669 339.625 121.375 338.2L175.019 293.5H312.25C332.931 293.5 349.75 276.681 349.75 256V143.5C349.75 122.819 332.931 106 312.25 106ZM331 256C331 266.331 322.6 274.75 312.25 274.75H171.625C169.431 274.75 167.313 275.519 165.625 276.925L124.75 310.994V143.5C124.75 133.169 133.15 124.75 143.5 124.75H312.25C322.6 124.75 331 133.169 331 143.5V256Z" fill="#C5C5C5"/>
<path d="M368.5 181C363.325 181 359.125 185.2 359.125 190.375C359.125 195.55 363.325 199.75 368.5 199.75C378.85 199.75 387.25 208.169 387.25 218.5V377.106L355.6 351.794C353.935 350.474 351.874 349.754 349.75 349.75H218.5C208.15 349.75 199.75 341.331 199.75 331V321.625C199.75 316.45 195.55 312.25 190.375 312.25C185.2 312.25 181 316.45 181 321.625V331C181 351.681 197.819 368.5 218.5 368.5H346.45L390.756 403.956C392.427 405.278 394.495 405.998 396.625 406C397.994 406 399.381 405.7 400.694 405.081C402.283 404.312 403.623 403.111 404.562 401.615C405.5 400.12 405.998 398.39 406 396.625V218.5C406 197.819 389.181 181 368.5 181Z" fill="#C5C5C5"/>
</g>
<defs>
<clipPath id="clip0_1405_201">
<rect width="300" height="300" fill="white" transform="translate(106 106)"/>
</clipPath>
</defs>
</svg>
