<svg width="17" height="16" viewBox="0 0 17 16" fill="none" xmlns="http://www.w3.org/2000/svg">
<path d="M12.6946 6.62965L12.8712 7.23479L13.4933 7.33647L15.002 7.58304V8.39428L13.4828 8.66097L12.8684 8.76883L12.695 9.36807C12.596 9.71037 12.4603 10.0393 12.2897 10.35L11.9858 10.9034L12.3548 11.4157L13.2476 12.6554L12.6744 13.229L11.4165 12.3466L10.9035 11.9868L10.356 12.2913C10.0453 12.4642 9.71405 12.6028 9.36665 12.7051L8.77262 12.8799L8.66443 13.4896L8.39644 15H7.58295L7.33431 13.507L7.23081 12.8856L6.62556 12.7106C6.2799 12.6107 5.94661 12.4731 5.63132 12.2997L5.0858 11.9998L4.57588 12.3569L3.33019 13.2293L2.75527 12.654L3.63096 11.4293L3.99795 10.916L3.69265 10.3638C3.51728 10.0466 3.37828 9.71227 3.27768 9.36553L3.10435 8.76813L2.49187 8.65953L1.00195 8.39535V7.58159L2.48536 7.33459L3.10555 7.23132L3.28126 6.62765C3.38272 6.27909 3.52193 5.94444 3.6966 5.62833L3.99809 5.08271L3.64094 4.57178L2.77179 3.32838L3.34647 2.75375L4.57737 3.63289L5.08816 3.99771L5.63875 3.6963C5.95073 3.52552 6.283 3.38896 6.63044 3.28908L7.23901 3.11413L7.34108 2.48919L7.5843 1H8.39539L8.65953 2.50785L8.76703 3.12153L9.36526 3.29552C9.70916 3.39554 10.0406 3.53328 10.3546 3.70685L10.9083 4.01289L11.422 3.64368L12.6571 2.756L13.2306 3.32912L12.3452 4.59082L11.9876 5.10045L12.2871 5.64626C12.4581 5.95796 12.5947 6.28711 12.6946 6.62965ZM15.5494 7.67251C15.5491 7.67247 15.5489 7.67243 15.5487 7.67239L15.5491 7.67247L15.5494 7.67251ZM15.5416 8.29955L15.5414 8.29958L15.5416 8.29955ZM13.1252 13.5451L13.1227 13.5434C13.1235 13.544 13.1243 13.5446 13.1252 13.5451ZM7.67418 15.5478L7.67382 15.5456L7.67418 15.5478Z" stroke="white" stroke-width="2"/>
</svg>
