<svg width="512" height="512" viewBox="0 0 512 512" fill="none" xmlns="http://www.w3.org/2000/svg">
<g clip-path="url(#clip0_1405_202)">
<path d="M354.938 268.85C350.088 262.725 351.475 260 354.938 254.525C355 254.463 395.038 199.138 399.163 180.375L399.188 180.362C401.238 173.525 399.188 168.5 389.275 168.5H356.475C348.125 168.5 344.275 172.812 342.213 177.638C342.213 177.638 325.513 217.613 301.888 243.525C294.263 251.013 290.738 253.413 286.575 253.413C284.525 253.413 281.338 251.013 281.338 244.175V180.362C281.338 172.162 279 168.5 272.088 168.5H220.513C215.275 168.5 212.163 172.325 212.163 175.888C212.163 183.663 223.975 185.45 225.2 207.325V254.788C225.2 265.188 223.313 267.1 219.125 267.1C207.975 267.1 180.913 226.963 164.875 181.025C161.638 172.112 158.475 168.512 150.063 168.512H117.25C107.887 168.512 106 172.825 106 177.65C106 186.175 117.15 228.563 157.85 284.563C184.975 322.788 223.175 343.5 257.925 343.5C278.813 343.5 281.363 338.9 281.363 330.988C281.363 294.463 279.475 291.013 289.938 291.013C294.788 291.013 303.138 293.413 322.638 311.85C344.925 333.713 348.588 343.5 361.063 343.5H393.863C403.213 343.5 407.95 338.9 405.225 329.825C398.988 310.738 356.838 271.475 354.938 268.85Z" fill="#C5C5C5"/>
</g>
<defs>
<clipPath id="clip0_1405_202">
<rect width="300" height="300" fill="white" transform="translate(106 106)"/>
</clipPath>
</defs>
</svg>
