<svg width="512" height="512" viewBox="0 0 512 512" fill="none" xmlns="http://www.w3.org/2000/svg">
<path fill-rule="evenodd" clip-rule="evenodd" d="M256.5 90C164.545 90 90 164.545 90 256.5C90 348.455 164.545 423 256.5 423C348.455 423 423 348.455 423 256.5C423 164.545 348.455 90 256.5 90ZM205.199 144.278C208.475 135.543 212.121 127.811 216.077 121.128C187.97 129.651 163.499 146.606 145.621 169.04C159.185 174.882 175.841 179.529 194.456 182.744C197.26 168.802 200.861 155.845 205.199 144.278ZM190.596 206.358C168.226 202.482 148.194 196.673 132.128 189.27C122.491 206.763 116.654 226.092 115 245.995H187.546C187.927 232.385 188.959 219.092 190.596 206.358ZM296.711 185.964C294.214 173.899 291.081 162.697 287.334 152.704C278.616 129.447 267.189 115 257.515 115C247.829 115 236.393 129.448 227.671 152.705C223.924 162.697 220.79 173.898 218.291 185.962C230.878 187.222 244.043 187.887 257.515 187.887C270.977 187.887 284.134 187.223 296.712 185.964H296.711ZM214.368 306.371C228.258 304.905 242.746 304.131 257.515 304.131C272.275 304.131 286.753 304.904 300.635 306.369C302.121 294.715 303.063 282.519 303.432 269.995H211.571C211.94 282.519 212.881 294.716 214.368 306.371ZM187.546 269.995H115C116.655 289.906 122.496 309.244 132.14 326.742C148.204 319.342 168.233 313.534 190.599 309.66C188.96 296.917 187.927 283.615 187.546 269.995ZM320.547 182.746C339.164 179.53 355.82 174.882 369.387 169.038C351.508 146.601 327.037 129.645 298.93 121.124C302.886 127.807 306.531 135.541 309.807 144.279C314.144 155.847 317.744 168.804 320.547 182.746ZM300.636 209.649C286.755 211.114 272.276 211.887 257.516 211.887C242.745 211.887 228.256 211.114 214.366 209.647C212.88 221.294 211.939 233.481 211.57 245.995H303.432C303.063 233.482 302.121 221.295 300.636 209.649ZM218.295 330.056C220.793 342.115 223.925 353.309 227.671 363.295C236.391 386.545 247.827 400.989 257.515 400.989C267.191 400.989 278.617 386.546 287.335 363.296C291.079 353.309 294.211 342.113 296.708 330.054C284.131 328.796 270.976 328.132 257.515 328.132C244.045 328.132 230.88 328.796 218.295 330.056ZM327.457 245.995H400.002C398.348 226.092 392.512 206.762 382.877 189.269C366.81 196.674 346.777 202.484 324.407 206.359C326.043 219.094 327.075 232.387 327.457 245.995ZM309.807 371.722C306.532 380.454 302.889 388.184 298.935 394.864C327.031 386.346 351.493 369.398 369.369 346.973C355.805 341.132 339.154 336.486 320.544 333.272C317.741 347.209 314.142 360.159 309.807 371.722ZM194.459 333.273C175.849 336.488 159.199 341.132 145.638 346.971C163.514 369.393 187.976 386.339 216.072 394.86C212.118 388.18 208.474 380.453 205.199 371.723C200.863 360.161 197.263 347.211 194.459 333.273ZM194.459 333.273L194.46 333.273ZM194.46 333.273L194.459 333.273ZM324.404 309.659C346.77 313.533 366.799 319.341 382.865 326.743C392.507 309.244 398.347 289.906 400.002 269.995H327.456C327.075 283.614 326.042 296.916 324.404 309.659Z" fill="#D9D9D9"/>
</svg>
